<svg width="1031" height="302" viewBox="0 0 1031 302" fill="none" xmlns="http://www.w3.org/2000/svg">
<path fill-rule="evenodd" clip-rule="evenodd" d="M4.01869 301L1 1H296.831C296.286 77.6593 281.379 109.455 229.27 146.618C288.009 194.834 300.688 229.035 301 297.933L4.01869 301ZM47.576 128.07V45.694H254.428C245.265 93.8076 193.432 126.875 168.467 128.07C143.502 129.265 47.576 128.07 47.576 128.07ZM47.576 255.814V173.438C47.576 173.438 143.502 172.243 168.467 173.438C193.432 174.634 245.265 207.7 254.428 255.814H47.576Z" fill="black"/>
<path d="M1 1V0.5H0.494944L0.500025 1.00503L1 1ZM4.01869 301L3.51871 301.005L3.52374 301.505L4.02385 301.5L4.01869 301ZM296.831 1L297.331 1.00356L297.335 0.5H296.831V1ZM229.27 146.618L228.98 146.211L228.448 146.59L228.953 147.005L229.27 146.618ZM301 297.933L301.005 298.433L301.502 298.428L301.5 297.931L301 297.933ZM47.576 45.694V45.194H47.076V45.694H47.576ZM47.576 128.07H47.076V128.564L47.5697 128.57L47.576 128.07ZM254.428 45.694L254.919 45.7875L255.032 45.194H254.428V45.694ZM168.467 128.07L168.491 128.569L168.467 128.07ZM47.576 173.438L47.5697 172.938L47.076 172.944V173.438H47.576ZM47.576 255.814H47.076V256.314H47.576V255.814ZM168.467 173.438L168.443 173.938L168.467 173.438ZM254.428 255.814V256.314H255.032L254.919 255.721L254.428 255.814ZM0.500025 1.00503L3.51871 301.005L4.51866 300.995L1.49997 0.994969L0.500025 1.00503ZM296.831 0.5H1V1.5H296.831V0.5ZM229.56 147.025C255.651 128.418 272.481 111.117 282.841 88.8311C293.195 66.5561 297.058 39.3557 297.331 1.00356L296.331 0.996444C296.059 39.3036 292.197 66.3309 281.934 88.4096C271.676 110.477 254.998 127.656 228.98 146.211L229.56 147.025ZM301.5 297.931C301.344 263.457 298.095 237.598 287.5 214.313C276.904 191.025 258.985 170.363 229.587 146.232L228.953 147.005C258.294 171.089 276.084 191.636 286.59 214.727C297.098 237.82 300.344 263.511 300.5 297.935L301.5 297.931ZM4.02385 301.5L301.005 298.433L300.995 297.433L4.01352 300.5L4.02385 301.5ZM47.076 45.694V128.07H48.076V45.694H47.076ZM254.428 45.194H47.576V46.194H254.428V45.194ZM168.491 128.569C181.126 127.964 200.427 119.326 217.694 104.86C234.976 90.3813 250.309 69.9921 254.919 45.7875L253.937 45.6004C249.383 69.5095 234.219 89.7106 217.052 104.093C199.871 118.487 180.774 126.98 168.443 127.57L168.491 128.569ZM47.576 128.07C47.5697 128.57 47.5701 128.57 47.5708 128.57C47.5716 128.57 47.5727 128.57 47.5741 128.57C47.5771 128.57 47.5814 128.57 47.5873 128.57C47.5989 128.57 47.6163 128.57 47.6394 128.571C47.6856 128.571 47.7547 128.572 47.8458 128.573C48.0281 128.575 48.299 128.579 48.6534 128.583C49.3622 128.591 50.4049 128.604 51.7409 128.619C54.4128 128.649 58.2577 128.691 62.9495 128.738C72.3331 128.831 85.1048 128.943 98.6569 129.018C125.753 129.167 155.992 129.168 168.491 128.569L168.443 127.57C155.977 128.167 125.77 128.167 98.6624 128.018C85.1123 127.943 72.3421 127.831 62.9595 127.738C58.2682 127.691 54.4238 127.649 51.7522 127.619C50.4165 127.604 49.3739 127.591 48.6653 127.583C48.311 127.579 48.0402 127.575 47.858 127.573C47.7669 127.572 47.6979 127.571 47.6518 127.571C47.6287 127.57 47.6113 127.57 47.5997 127.57C47.5938 127.57 47.5895 127.57 47.5866 127.57C47.5851 127.57 47.584 127.57 47.5833 127.57C47.5826 127.57 47.5822 127.57 47.576 128.07ZM47.076 173.438V255.814H48.076V173.438H47.076ZM168.491 172.939C155.992 172.34 125.753 172.341 98.6569 172.49C85.1048 172.565 72.3331 172.677 62.9495 172.77C58.2577 172.817 54.4128 172.859 51.7409 172.889C50.4049 172.904 49.3622 172.917 48.6534 172.925C48.299 172.929 48.0281 172.933 47.8458 172.935C47.7547 172.936 47.6856 172.937 47.6394 172.937C47.6163 172.938 47.5989 172.938 47.5873 172.938C47.5814 172.938 47.5771 172.938 47.5741 172.938C47.5727 172.938 47.5716 172.938 47.5708 172.938C47.5701 172.938 47.5697 172.938 47.576 173.438C47.5822 173.938 47.5826 173.938 47.5833 173.938C47.584 173.938 47.5851 173.938 47.5866 173.938C47.5895 173.938 47.5938 173.938 47.5997 173.938C47.6113 173.938 47.6287 173.938 47.6518 173.937C47.6979 173.937 47.7669 173.936 47.858 173.935C48.0402 173.933 48.311 173.929 48.6653 173.925C49.3739 173.917 50.4165 173.904 51.7522 173.889C54.4238 173.859 58.2682 173.817 62.9595 173.77C72.3421 173.677 85.1123 173.565 98.6624 173.49C125.77 173.341 155.977 173.341 168.443 173.938L168.491 172.939ZM254.919 255.721C250.309 231.516 234.976 211.127 217.694 196.649C200.427 182.182 181.126 173.544 168.491 172.939L168.443 173.938C180.774 174.528 199.871 183.021 217.052 197.415C234.219 211.798 249.383 231.999 253.937 255.908L254.919 255.721ZM47.576 256.314H254.428V255.314H47.576V256.314Z" fill="black"/>
<path d="M333.078 170.945C333.078 167.625 333.039 164.734 332.961 162.273C332.883 159.773 332.766 157.625 332.609 155.828C332.453 153.992 332.258 152.469 332.023 151.258C331.828 150.047 331.613 149.031 331.379 148.211V147.977C332.16 148.016 332.98 148.035 333.84 148.035C334.582 148.074 335.402 148.094 336.301 148.094C337.238 148.094 338.195 148.094 339.172 148.094C340.578 148.094 342.473 147.957 344.855 147.684C347.277 147.41 350.383 147.273 354.172 147.273C357.688 147.273 360.93 147.742 363.898 148.68C366.867 149.578 369.426 150.887 371.574 152.605C373.762 154.324 375.461 156.453 376.672 158.992C377.922 161.492 378.547 164.344 378.547 167.547C378.547 170.242 378.176 172.664 377.434 174.812C376.691 176.922 375.637 178.777 374.27 180.379C372.941 181.941 371.32 183.27 369.406 184.363C367.531 185.418 365.461 186.258 363.195 186.883C366.516 187.391 369.543 188.25 372.277 189.461C375.012 190.633 377.355 192.117 379.309 193.914C381.301 195.711 382.824 197.82 383.879 200.242C384.973 202.625 385.52 205.281 385.52 208.211C385.52 216.453 382.805 222.645 377.375 226.785C371.945 230.887 363.82 232.938 353 232.938C351.828 232.938 350.461 232.879 348.898 232.762C347.336 232.684 345.734 232.586 344.094 232.469C342.492 232.352 340.91 232.234 339.348 232.117C337.785 232.039 336.418 232 335.246 232H331.379V231.766C331.613 230.945 331.828 229.93 332.023 228.719C332.258 227.508 332.453 226.004 332.609 224.207C332.766 222.41 332.883 220.281 332.961 217.82C333.039 215.32 333.078 212.41 333.078 209.09V170.945ZM354.582 190.457C351.926 190.457 349.699 190.555 347.902 190.75C346.105 190.945 344.719 191.141 343.742 191.336V209.09C343.742 213.66 343.82 217.43 343.977 220.398C344.133 223.367 344.348 225.789 344.621 227.664C346.105 227.859 347.59 228.035 349.074 228.191C350.559 228.348 351.75 228.426 352.648 228.426C359.953 228.426 365.285 226.805 368.645 223.562C372.043 220.281 373.742 215.262 373.742 208.504C373.742 205.848 373.332 203.426 372.512 201.238C371.73 199.012 370.539 197.098 368.938 195.496C367.375 193.895 365.383 192.664 362.961 191.805C360.578 190.906 357.785 190.457 354.582 190.457ZM343.742 186.062C344.836 186.18 345.812 186.258 346.672 186.297C347.531 186.297 348.449 186.297 349.426 186.297C352.082 186.297 354.504 185.926 356.691 185.184C358.879 184.402 360.734 183.25 362.258 181.727C363.82 180.203 365.031 178.309 365.891 176.043C366.75 173.738 367.18 171.062 367.18 168.016C367.18 165.477 366.867 163.172 366.242 161.102C365.617 159.031 364.68 157.273 363.43 155.828C362.219 154.344 360.715 153.211 358.918 152.43C357.121 151.648 355.07 151.258 352.766 151.258C351.281 151.258 349.973 151.316 348.84 151.434C347.746 151.551 346.809 151.688 346.027 151.844C345.129 152 344.367 152.195 343.742 152.43V186.062ZM396.889 231.766C397.123 230.945 397.338 229.93 397.534 228.719C397.729 227.508 397.905 226.004 398.061 224.207C398.217 222.41 398.334 220.281 398.412 217.82C398.491 215.32 398.53 212.41 398.53 209.09V170.945C398.53 167.625 398.491 164.734 398.412 162.273C398.334 159.773 398.217 157.625 398.061 155.828C397.905 153.992 397.729 152.469 397.534 151.258C397.338 150.047 397.123 149.031 396.889 148.211V147.977H410.893V148.211C410.659 149.031 410.424 150.047 410.19 151.258C409.995 152.469 409.819 153.992 409.662 155.828C409.545 157.625 409.428 159.773 409.311 162.273C409.233 164.734 409.194 167.625 409.194 170.945V209.09C409.194 212.41 409.233 215.32 409.311 217.82C409.428 220.281 409.545 222.41 409.662 224.207C409.819 226.004 409.995 227.508 410.19 228.719C410.424 229.93 410.659 230.945 410.893 231.766V232H396.889V231.766ZM437.731 219.871C437.731 225.145 437.184 229.715 436.091 233.582C435.036 237.449 433.532 240.867 431.579 243.836C429.665 246.844 427.38 249.52 424.723 251.863C422.106 254.207 419.235 256.512 416.11 258.777L415.055 257.312C417.751 254.852 419.88 252.293 421.442 249.637C423.044 246.98 424.255 244.129 425.075 241.082C425.934 238.074 426.481 234.832 426.716 231.355C426.95 227.84 427.067 224.012 427.067 219.871V170.945C427.067 167.625 427.028 164.734 426.95 162.273C426.872 159.773 426.755 157.625 426.598 155.828C426.442 153.992 426.247 152.469 426.012 151.258C425.817 150.047 425.602 149.031 425.368 148.211V147.977H439.43V148.211C439.196 149.031 438.962 150.047 438.727 151.258C438.532 152.469 438.356 153.992 438.2 155.828C438.044 157.625 437.927 159.773 437.848 162.273C437.77 164.734 437.731 167.625 437.731 170.945V219.871ZM491.64 146.57C498.163 146.57 504.179 147.645 509.687 149.793C515.234 151.902 520.019 154.891 524.042 158.758C528.066 162.586 531.21 167.195 533.476 172.586C535.741 177.977 536.874 183.934 536.874 190.457C536.874 194.168 536.445 197.82 535.585 201.414C534.726 205.008 533.456 208.406 531.777 211.609C530.136 214.812 528.105 217.781 525.683 220.516C523.261 223.211 520.488 225.555 517.363 227.547C514.277 229.5 510.859 231.023 507.109 232.117C503.359 233.25 499.316 233.816 494.98 233.816C488.456 233.816 482.421 232.781 476.874 230.711C471.366 228.602 466.601 225.633 462.577 221.805C458.554 217.977 455.409 213.387 453.144 208.035C450.878 202.645 449.745 196.668 449.745 190.105C449.745 186.395 450.175 182.742 451.034 179.148C451.894 175.555 453.144 172.137 454.784 168.895C456.464 165.652 458.495 162.684 460.878 159.988C463.3 157.254 466.054 154.891 469.14 152.898C472.265 150.906 475.702 149.363 479.452 148.27C483.241 147.137 487.304 146.57 491.64 146.57ZM494.98 228.543C499.316 228.543 503.28 227.762 506.874 226.199C510.468 224.637 513.554 222.371 516.132 219.402C518.749 216.434 520.78 212.82 522.226 208.562C523.671 204.266 524.394 199.402 524.394 193.973C524.394 187.957 523.691 182.391 522.284 177.273C520.917 172.117 518.866 167.664 516.132 163.914C513.398 160.125 509.98 157.176 505.878 155.066C501.816 152.918 497.07 151.844 491.64 151.844C487.304 151.844 483.339 152.625 479.745 154.188C476.152 155.711 473.046 157.938 470.429 160.867C467.851 163.797 465.839 167.391 464.394 171.648C462.948 175.906 462.226 180.75 462.226 186.18C462.226 192.156 462.909 197.742 464.277 202.938C465.644 208.094 467.695 212.566 470.429 216.355C473.163 220.145 476.581 223.133 480.683 225.32C484.784 227.469 489.55 228.543 494.98 228.543ZM607.834 170.945C607.834 167.625 607.795 164.734 607.716 162.273C607.638 159.773 607.521 157.625 607.365 155.828C607.209 153.992 607.033 152.469 606.837 151.258C606.642 150.047 606.427 149.031 606.193 148.211V147.977H616.623V148.211C616.388 149.031 616.154 150.047 615.92 151.258C615.724 152.469 615.548 153.992 615.392 155.828C615.275 157.625 615.158 159.773 615.041 162.273C614.962 164.734 614.923 167.625 614.923 170.945V202.586C614.923 208.172 614.123 212.938 612.521 216.883C610.92 220.828 608.693 224.07 605.841 226.609C602.99 229.109 599.572 230.926 595.587 232.059C591.603 233.23 587.248 233.816 582.521 233.816C577.795 233.816 573.38 233.27 569.279 232.176C565.216 231.082 561.662 229.324 558.615 226.902C555.607 224.441 553.244 221.277 551.525 217.41C549.806 213.504 548.947 208.758 548.947 203.172V170.945C548.947 167.625 548.908 164.734 548.83 162.273C548.752 159.773 548.634 157.625 548.478 155.828C548.322 153.992 548.127 152.469 547.892 151.258C547.697 150.047 547.482 149.031 547.248 148.211V147.977H561.31V148.211C561.076 149.031 560.841 150.047 560.607 151.258C560.412 152.469 560.236 153.992 560.08 155.828C559.923 157.625 559.806 159.773 559.728 162.273C559.65 164.734 559.611 167.625 559.611 170.945V203.816C559.611 208.465 560.295 212.312 561.662 215.359C563.068 218.367 564.904 220.77 567.17 222.566C569.435 224.324 572.013 225.555 574.904 226.258C577.795 226.961 580.744 227.312 583.752 227.312C586.759 227.312 589.709 226.961 592.599 226.258C595.49 225.555 598.048 224.324 600.275 222.566C602.541 220.77 604.357 218.367 605.724 215.359C607.13 212.312 607.834 208.465 607.834 203.816V170.945ZM661.859 195.262L641.117 221.57C640.336 222.508 639.574 223.484 638.832 224.5C638.09 225.477 637.426 226.434 636.84 227.371C636.254 228.309 635.766 229.188 635.375 230.008C635.023 230.789 634.848 231.453 634.848 232H623.48V231.766C624.301 231.023 625.512 229.891 627.113 228.367C628.715 226.844 630.414 224.93 632.211 222.625L657.992 190.223L631.508 155.418C630.062 153.543 628.637 151.98 627.23 150.73C625.824 149.441 624.77 148.602 624.066 148.211V147.977H642.406C642.406 148.445 642.465 149.051 642.582 149.793C642.738 150.535 643.012 151.414 643.402 152.43C643.793 153.406 644.32 154.5 644.984 155.711C645.688 156.922 646.586 158.23 647.68 159.637L664.613 181.844L683.305 158.465C684.008 157.605 684.691 156.668 685.355 155.652C686.059 154.637 686.664 153.66 687.172 152.723C687.719 151.746 688.148 150.848 688.461 150.027C688.812 149.207 688.988 148.523 688.988 147.977H700.355V148.211C699.965 148.523 699.535 148.895 699.066 149.324C698.598 149.754 698.051 150.281 697.426 150.906C696.84 151.531 696.176 152.273 695.434 153.133C694.691 153.992 693.852 155.008 692.914 156.18L668.48 187L695.785 222.742C697.66 225.164 699.398 227.176 701 228.777C702.641 230.34 703.832 231.336 704.574 231.766V232H686.352C686.352 231.102 685.98 229.617 685.238 227.547C684.496 225.477 683.109 223.074 681.078 220.34L661.859 195.262ZM780.516 161.336H779.227C778.915 160.438 778.407 159.422 777.704 158.289C777.04 157.156 776.141 156.102 775.009 155.125C773.915 154.109 772.567 153.27 770.966 152.605C769.403 151.941 767.548 151.609 765.399 151.609C763.485 151.609 761.786 151.902 760.302 152.488C758.817 153.074 757.567 153.895 756.552 154.949C755.575 156.004 754.833 157.254 754.325 158.699C753.817 160.145 753.563 161.746 753.563 163.504C753.563 166.316 754.345 169.012 755.907 171.59C757.509 174.129 759.501 176.648 761.884 179.148C764.266 181.648 766.845 184.148 769.618 186.648C772.391 189.148 774.97 191.746 777.352 194.441C779.735 197.137 781.708 199.969 783.27 202.938C784.872 205.867 785.673 209.031 785.673 212.43C785.673 214.969 785.223 217.527 784.325 220.105C783.466 222.645 782.118 224.93 780.282 226.961C778.446 228.992 776.083 230.652 773.192 231.941C770.302 233.191 766.864 233.816 762.88 233.816C760.653 233.816 758.524 233.602 756.493 233.172C754.501 232.781 752.645 232.293 750.927 231.707C749.247 231.082 747.723 230.418 746.356 229.715C745.028 229.012 743.934 228.367 743.075 227.781L744.423 214.832H745.888C746.317 216.668 747.02 218.426 747.997 220.105C748.973 221.746 750.165 223.211 751.571 224.5C753.016 225.75 754.657 226.766 756.493 227.547C758.329 228.289 760.341 228.66 762.528 228.66C764.52 228.66 766.298 228.367 767.86 227.781C769.462 227.156 770.829 226.316 771.962 225.262C773.095 224.168 773.954 222.879 774.54 221.395C775.165 219.91 775.477 218.289 775.477 216.531C775.477 214.07 775.028 211.805 774.13 209.734C773.231 207.625 772.04 205.633 770.555 203.758C769.11 201.883 767.45 200.066 765.575 198.309C763.739 196.551 761.845 194.793 759.891 193.035C757.938 191.238 756.024 189.402 754.149 187.527C752.313 185.652 750.653 183.66 749.169 181.551C747.723 179.402 746.552 177.117 745.653 174.695C744.755 172.234 744.305 169.539 744.305 166.609C744.305 163.523 744.891 160.75 746.063 158.289C747.274 155.789 748.856 153.66 750.809 151.902C752.802 150.145 755.048 148.797 757.548 147.859C760.048 146.922 762.626 146.453 765.282 146.453C767.235 146.453 769.032 146.609 770.673 146.922C772.313 147.234 773.778 147.605 775.067 148.035C776.395 148.465 777.548 148.895 778.524 149.324C779.501 149.754 780.302 150.105 780.927 150.379L780.516 161.336ZM855.812 191.805C854.249 191.766 852.296 191.746 849.952 191.746C847.609 191.707 845.05 191.668 842.277 191.629C839.542 191.59 836.671 191.57 833.663 191.57C830.695 191.531 827.784 191.512 824.933 191.512C822.081 191.473 819.366 191.473 816.788 191.512C814.21 191.551 811.964 191.609 810.05 191.688V209.09C810.05 212.41 810.089 215.32 810.167 217.82C810.284 220.281 810.402 222.41 810.519 224.207C810.675 226.004 810.851 227.508 811.046 228.719C811.28 229.93 811.515 230.945 811.749 231.766V232H797.687V231.766C797.921 230.945 798.136 229.93 798.331 228.719C798.566 227.508 798.761 226.004 798.917 224.207C799.073 222.41 799.191 220.281 799.269 217.82C799.347 215.32 799.386 212.41 799.386 209.09V170.945C799.386 167.625 799.347 164.734 799.269 162.273C799.191 159.773 799.073 157.625 798.917 155.828C798.761 153.992 798.566 152.469 798.331 151.258C798.136 150.047 797.921 149.031 797.687 148.211V147.977H811.749V148.211C811.515 149.031 811.28 150.047 811.046 151.258C810.851 152.469 810.675 153.992 810.519 155.828C810.402 157.625 810.284 159.773 810.167 162.273C810.089 164.734 810.05 167.625 810.05 170.945V185.945C812.081 186.023 814.386 186.082 816.964 186.121C819.542 186.121 822.237 186.121 825.05 186.121C827.862 186.082 830.714 186.043 833.605 186.004C836.534 185.965 839.347 185.926 842.042 185.887C844.777 185.809 847.316 185.73 849.659 185.652C852.042 185.574 854.093 185.496 855.812 185.418V170.945C855.812 167.625 855.753 164.734 855.636 162.273C855.558 159.773 855.441 157.625 855.284 155.828C855.167 153.992 854.991 152.469 854.757 151.258C854.562 150.047 854.347 149.031 854.112 148.211V147.977H868.175V148.211C867.941 149.031 867.706 150.047 867.472 151.258C867.277 152.469 867.101 153.992 866.945 155.828C866.788 157.625 866.671 159.773 866.593 162.273C866.515 164.734 866.476 167.625 866.476 170.945V209.09C866.476 212.41 866.515 215.32 866.593 217.82C866.671 220.281 866.788 222.41 866.945 224.207C867.101 226.004 867.277 227.508 867.472 228.719C867.706 229.93 867.941 230.945 868.175 231.766V232H854.112V231.766C854.347 230.945 854.562 229.93 854.757 228.719C854.991 227.508 855.167 226.004 855.284 224.207C855.441 222.41 855.558 220.281 855.636 217.82C855.753 215.32 855.812 212.41 855.812 209.09V191.805ZM920.912 146.57C927.435 146.57 933.451 147.645 938.959 149.793C944.505 151.902 949.291 154.891 953.314 158.758C957.338 162.586 960.482 167.195 962.748 172.586C965.013 177.977 966.146 183.934 966.146 190.457C966.146 194.168 965.716 197.82 964.857 201.414C963.998 205.008 962.728 208.406 961.048 211.609C959.408 214.812 957.377 217.781 954.955 220.516C952.533 223.211 949.759 225.555 946.634 227.547C943.548 229.5 940.13 231.023 936.38 232.117C932.63 233.25 928.588 233.816 924.252 233.816C917.728 233.816 911.693 232.781 906.146 230.711C900.638 228.602 895.873 225.633 891.849 221.805C887.826 217.977 884.681 213.387 882.416 208.035C880.15 202.645 879.017 196.668 879.017 190.105C879.017 186.395 879.447 182.742 880.306 179.148C881.166 175.555 882.416 172.137 884.056 168.895C885.736 165.652 887.767 162.684 890.15 159.988C892.572 157.254 895.326 154.891 898.412 152.898C901.537 150.906 904.974 149.363 908.724 148.27C912.513 147.137 916.576 146.57 920.912 146.57ZM924.252 228.543C928.588 228.543 932.552 227.762 936.146 226.199C939.74 224.637 942.826 222.371 945.404 219.402C948.021 216.434 950.052 212.82 951.498 208.562C952.943 204.266 953.666 199.402 953.666 193.973C953.666 187.957 952.963 182.391 951.556 177.273C950.189 172.117 948.138 167.664 945.404 163.914C942.67 160.125 939.252 157.176 935.15 155.066C931.088 152.918 926.341 151.844 920.912 151.844C916.576 151.844 912.611 152.625 909.017 154.188C905.423 155.711 902.318 157.938 899.701 160.867C897.123 163.797 895.111 167.391 893.666 171.648C892.22 175.906 891.498 180.75 891.498 186.18C891.498 192.156 892.181 197.742 893.548 202.938C894.916 208.094 896.966 212.566 899.701 216.355C902.435 220.145 905.853 223.133 909.955 225.32C914.056 227.469 918.822 228.543 924.252 228.543ZM989.352 194.793C993.18 195.496 996.676 195.574 999.84 195.027C1003.04 194.441 1005.78 193.23 1008.04 191.395C1010.35 189.52 1012.12 187 1013.38 183.836C1014.66 180.672 1015.31 176.805 1015.31 172.234C1015.31 169.07 1014.98 166.199 1014.31 163.621C1013.65 161.004 1012.65 158.797 1011.32 157C1010.04 155.164 1008.39 153.758 1006.4 152.781C1004.41 151.766 1002.09 151.258 999.43 151.258C997.75 151.258 996.285 151.336 995.035 151.492C993.785 151.609 992.73 151.746 991.871 151.902C990.855 152.098 990.016 152.312 989.352 152.547V194.793ZM976.988 147.977C977.77 148.055 978.59 148.133 979.449 148.211C980.191 148.289 981.012 148.348 981.91 148.387C982.848 148.387 983.805 148.387 984.781 148.387C986.305 148.387 988.355 148.211 990.934 147.859C993.551 147.469 996.871 147.273 1000.89 147.273C1004.64 147.273 1008.1 147.82 1011.27 148.914C1014.47 150.008 1017.24 151.609 1019.59 153.719C1021.93 155.828 1023.75 158.406 1025.04 161.453C1026.36 164.461 1027.03 167.898 1027.03 171.766C1027.03 176.961 1025.99 181.453 1023.92 185.242C1021.85 189.031 1019.08 192.098 1015.6 194.441C1012.12 196.785 1008.12 198.387 1003.59 199.246C999.059 200.066 994.312 200.105 989.352 199.363V209.09C989.352 212.41 989.391 215.32 989.469 217.82C989.586 220.281 989.703 222.41 989.82 224.207C989.977 226.004 990.152 227.508 990.348 228.719C990.582 229.93 990.816 230.945 991.051 231.766V232H976.988V231.766C977.223 230.945 977.438 229.93 977.633 228.719C977.867 227.508 978.062 226.004 978.219 224.207C978.375 222.41 978.492 220.281 978.57 217.82C978.648 215.32 978.688 212.41 978.688 209.09V170.945C978.688 167.625 978.648 164.734 978.57 162.273C978.492 159.773 978.375 157.625 978.219 155.828C978.062 153.992 977.867 152.469 977.633 151.258C977.438 150.047 977.223 149.031 976.988 148.211V147.977Z" fill="black"/>
</svg>
