<svg width="1026" height="1026" viewBox="0 0 1026 1026" fill="none" xmlns="http://www.w3.org/2000/svg">
<path fill-rule="evenodd" clip-rule="evenodd" d="M11.3038 1025L1 1H1010.77C1008.91 262.664 958.028 371.194 780.162 498.044C980.657 662.62 1023.94 779.361 1025 1014.53L11.3038 1025ZM159.973 434.729V153.553H866.027C834.75 317.781 657.829 430.649 572.615 434.729C487.4 438.809 159.973 434.729 159.973 434.729ZM159.973 870.77V589.594C159.973 589.594 487.4 585.514 572.615 589.594C657.829 593.674 834.75 706.543 866.027 870.77H159.973Z" fill="black"/>
<path d="M1 1V0.5H0.494944L0.500025 1.00503L1 1ZM11.3038 1025L10.8038 1025.01L10.8088 1025.51L11.3089 1025.5L11.3038 1025ZM1010.77 1L1011.27 1.00356L1011.27 0.5H1010.77V1ZM780.162 498.044L779.872 497.637L779.34 498.016L779.845 498.43L780.162 498.044ZM1025 1014.53L1025.01 1015.03L1025.5 1015.03L1025.5 1014.53L1025 1014.53ZM159.973 153.553V153.053H159.473V153.553H159.973ZM159.973 434.729H159.473V435.223L159.966 435.229L159.973 434.729ZM866.027 153.553L866.518 153.647L866.631 153.053H866.027V153.553ZM572.615 434.729L572.639 435.229L572.615 434.729ZM159.973 589.594L159.966 589.094L159.473 589.1V589.594H159.973ZM159.973 870.77H159.473V871.27H159.973V870.77ZM572.615 589.594L572.591 590.094L572.615 589.594ZM866.027 870.77V871.27H866.631L866.518 870.677L866.027 870.77ZM0.500025 1.00503L10.8038 1025.01L11.8038 1024.99L1.49997 0.994969L0.500025 1.00503ZM1010.77 0.5H1V1.5H1010.77V0.5ZM780.453 498.451C869.422 435 926.685 376.094 961.922 300.288C997.154 224.493 1010.34 131.858 1011.27 1.00356L1010.27 0.996444C1009.34 131.806 996.156 224.268 961.015 299.867C925.88 375.454 868.769 434.238 779.872 497.637L780.453 498.451ZM1025.5 1014.53C1024.97 896.919 1013.88 808.857 977.823 729.608C941.764 650.356 880.756 579.969 780.48 497.657L779.845 498.43C880.064 580.695 940.943 650.966 976.913 730.022C1012.88 809.079 1023.97 896.973 1024.5 1014.53L1025.5 1014.53ZM11.3089 1025.5L1025.01 1015.03L1024.99 1014.03L11.2986 1024.5L11.3089 1025.5ZM159.473 153.553V434.729H160.473V153.553H159.473ZM866.027 153.053H159.973V154.053H866.027V153.053ZM572.639 435.229C615.398 433.181 681.034 403.872 739.869 354.58C798.717 305.276 850.852 235.908 866.518 153.647L865.536 153.46C849.926 235.426 797.961 304.606 739.226 353.813C680.478 403.033 615.046 432.197 572.591 434.23L572.639 435.229ZM159.973 434.729C159.966 435.229 159.968 435.229 159.97 435.229C159.973 435.229 159.976 435.229 159.981 435.229C159.991 435.23 160.006 435.23 160.026 435.23C160.066 435.23 160.125 435.231 160.204 435.232C160.362 435.234 160.597 435.237 160.908 435.241C161.531 435.248 162.455 435.26 163.665 435.274C166.084 435.303 169.643 435.345 174.203 435.397C183.322 435.5 196.446 435.644 212.46 435.803C244.488 436.122 288.08 436.504 334.335 436.759C426.838 437.269 530.015 437.27 572.639 435.229L572.591 434.23C530 436.269 426.855 436.269 334.341 435.759C288.088 435.504 244.497 435.122 212.47 434.803C196.456 434.644 183.333 434.5 174.214 434.397C169.654 434.345 166.095 434.303 163.677 434.274C162.467 434.26 161.543 434.249 160.921 434.241C160.61 434.237 160.374 434.234 160.216 434.232C160.138 434.231 160.078 434.231 160.039 434.23C160.019 434.23 160.004 434.23 159.994 434.23C159.989 434.229 159.985 434.229 159.983 434.229C159.98 434.229 159.979 434.229 159.973 434.729ZM159.473 589.594V870.77H160.473V589.594H159.473ZM572.639 589.095C530.015 587.054 426.838 587.054 334.335 587.564C288.08 587.819 244.488 588.202 212.46 588.521C196.446 588.68 183.322 588.823 174.203 588.927C169.643 588.979 166.084 589.021 163.665 589.049C162.455 589.064 161.531 589.075 160.908 589.083C160.597 589.086 160.362 589.089 160.204 589.091C160.125 589.092 160.066 589.093 160.026 589.094C160.006 589.094 159.991 589.094 159.981 589.094C159.976 589.094 159.973 589.094 159.97 589.094C159.968 589.094 159.966 589.094 159.973 589.594C159.979 590.094 159.98 590.094 159.983 590.094C159.985 590.094 159.989 590.094 159.994 590.094C160.004 590.094 160.019 590.094 160.039 590.093C160.078 590.093 160.138 590.092 160.216 590.091C160.374 590.089 160.61 590.086 160.921 590.083C161.543 590.075 162.467 590.064 163.677 590.049C166.095 590.021 169.654 589.979 174.214 589.927C183.333 589.823 196.456 589.68 212.47 589.52C244.497 589.202 288.088 588.819 334.341 588.564C426.855 588.054 530 588.055 572.591 590.094L572.639 589.095ZM866.518 870.677C850.852 788.415 798.717 719.047 739.869 669.744C681.034 620.452 615.398 591.142 572.639 589.095L572.591 590.094C615.046 592.126 680.478 621.291 739.226 670.51C797.961 719.718 849.926 788.898 865.536 870.864L866.518 870.677ZM159.973 871.27H866.027V870.27H159.973V871.27Z" fill="black"/>
</svg>
